<svg version="1.0" xmlns="http://www.w3.org/2000/svg" width="85.333" height="85.333" viewBox="0 0 64 64"><path d="M47.6 1.6C45.8 3.4 45.5 7 47.1 7c.6 0 .8-.8.4-1.9-.8-2.6 2-4.8 4-3.1 2.1 1.7 1.9 3.7-.6 7.2-3.8 5.2-3.6 10.4.5 18.6 4.9 9.7 4.9 17.2 0 17.2-1.8 0-2.4-.6-2.4-2 0-1.2.6-2 1.3-1.8.7.2 1.5-.1 1.7-.7.9-1.9-2.9-1.6-3.9.3-1.3 2.4 1.2 6.4 3.7 6 1.3-.2 1.8.6 2 3.5l.3 3.8-3.8-.3c-2.9-.2-3.7-.7-3.5-2 .4-2.5-3.6-5-6-3.7-1.9 1-2.2 4.3-.3 3.7.5-.2.9-.9.7-1.5-.2-.7.6-1.3 1.8-1.3 1.4 0 2 .6 2 2.4 0 4.9-7.5 4.9-17.2 0-8.2-4.1-13.4-4.3-18.6-.5-3.5 2.5-5.5 2.7-7.2.6-1.7-2 .5-4.8 3.1-4 1.1.4 1.9.2 1.9-.4 0-.6-1.1-1.1-2.5-1.1C1.3 46-1 50.1 1 52.5c.7.8 2 1.5 2.9 1.5 1.2 0 2.1 1.2 2.7 3.7 1.6 6.4 9.6 8.5 12.5 3.2 2.1-3.9-4.2-7.9-7-4.5-.8.9-.8 1.6-.2 2 .5.4 1.4-.2 2-1.1.9-1.7 1.1-1.7 2.8 0 1.4 1.3 1.5 2.1.7 3.5-2.8 4.3-9.4 1.3-9.4-4.3 0-3.9 2.4-6 7.9-7.1 2.6-.5 5 .2 12.2 3.6 8.8 4.2 9.2 4.3 14.1 3.2 7.1-1.7 11.7-1.5 12.5.4.9 2.4-2.1 4.9-4.3 3.5-1.1-.6-1.3-1.1-.6-1.1 1.4 0 1.7-3 .2-3-1.9 0-2.3 3.1-.7 4.8 2.1 2.1 6.7.2 6.7-2.8 0-1.3.7-2 2-2 3 0 4.9-4.6 2.8-6.7-1.7-1.6-4.8-1.2-4.8.7 0 1.5 3 1.2 3-.3 0-.6.5-.4 1.1.7 1.4 2.2-1.1 5.2-3.5 4.3-1.9-.8-2.1-5.4-.4-12.5 1.1-4.9 1-5.3-3.2-14-3.4-7.3-4.1-9.7-3.6-12.4 1-5.4 3.2-7.8 7.1-7.8 5.6 0 8.6 6.6 4.3 9.4-1.4.8-2.2.7-3.5-.7-1.7-1.7-1.7-1.9 0-2.8.9-.6 1.5-1.5 1.1-2-.8-1.4-3.4.9-3.4 3.1 0 .9.9 2.5 1.9 3.4 4.1 3.8 9-3 6-8.3-.9-1.7-2.8-2.9-5.2-3.5C55.3 6 54 5.1 54 4c0-1.9-1.9-4-3.6-4-.7 0-2 .7-2.8 1.6z" fill="#dbdbdb"/></svg>