<svg version="1.0" xmlns="http://www.w3.org/2000/svg" width="85.333" height="85.333" viewBox="0 0 64 64"><path d="M11.2 1.2C10.5 1.9 10 3.1 10 4c0 1.1-1.3 2-3.7 2.6-6.4 1.6-8.5 9.6-3.2 12.5 3.9 2.1 7.9-4.2 4.5-7-.9-.8-1.6-.8-2-.2-.4.5.2 1.4 1.1 2 1.7.9 1.7 1.1 0 2.8-1.3 1.4-2.1 1.5-3.5.7C-1.1 14.6 1.9 8 7.5 8c3.9 0 6.1 2.4 7.1 7.8.5 2.7-.2 5.2-3.6 12.4-4.2 8.7-4.3 9.2-3.2 13.4 2.6 9.6.6 16.3-3.5 12.1-1.2-1.1-1.3-1.9-.4-3.3.6-1.1 1.1-1.3 1.1-.7 0 1.5 3 1.8 3 .3 0-1.9-3.1-2.3-4.8-.7C1.1 51.4 3 56 6 56c1.3 0 2 .7 2 2 0 3 4.6 4.9 6.7 2.8 1.6-1.7 1.2-4.8-.7-4.8-1.5 0-1.2 3 .3 3 .6 0 .4.5-.7 1.1-2.3 1.4-5.2-1.1-4.2-3.6.5-1.5 1.5-1.6 5.9-1.1 2.8.3 6.7.8 8.4 1.2 2.6.5 5.1-.3 12.2-3.6 7.2-3.4 9.6-4.1 12.2-3.6 5.5 1.1 7.9 3.2 7.9 7.1 0 5.6-6.6 8.6-9.4 4.3-.8-1.4-.7-2.2.7-3.5 1.7-1.7 1.9-1.7 2.8 0 .6.9 1.5 1.5 2 1.1 1.4-.8-.9-3.4-3.1-3.4-.9 0-2.5.9-3.4 1.9-3.8 4.1 3 9 8.3 6 1.7-.9 2.9-2.8 3.5-5.2.6-2.5 1.5-3.7 2.7-3.7.9 0 2.2-.7 2.9-1.5 2-2.4-.3-6.5-3.5-6.5-1.4 0-2.5.5-2.5 1.1 0 .6.8.8 1.9.4 2.6-.8 4.8 2 3.1 4-1.7 2.1-3.7 1.9-7.2-.6-5.2-3.8-10.4-3.6-18.6.5-9.7 4.9-17.2 4.9-17.2 0 0-1.8.6-2.4 2-2.4 1.3 0 2 .6 1.8 1.4-.2.8.1 1.6.7 1.8 1.9.6 1.6-3.1-.3-4.1-2.4-1.3-6.4 1.2-6 3.7.2 1.3-.6 1.8-3.5 2l-3.8.3.3-3.8c.2-2.9.7-3.7 2-3.5 2.5.4 5-3.6 3.7-6-1-1.9-4.1-2.2-3.9-.3.1.5.8.9 1.6.7.8-.2 1.4.5 1.4 1.8 0 1.4-.6 2-2.4 2-4.9 0-4.9-7.5 0-17.2 4.1-8.2 4.3-13.4.5-18.6-2.5-3.5-2.7-5.5-.6-7.2 2-1.7 4.8.5 4 3.1-.4 1.1-.2 1.9.4 1.9 1.6 0 1.3-3.6-.5-5.4-1.9-1.9-3.6-2-5.2-.4z" fill="#dbdbdb"/></svg>