<svg version="1.0" xmlns="http://www.w3.org/2000/svg" width="85.333" height="85.333" viewBox="0 0 64 64"><path d="M47.2.7c-.7.2-1.7 1.4-2.3 2.5-2.1 3.8 4.2 7.8 7 4.4.8-.9.8-1.6.2-2-.5-.4-1.4.2-2 1.1-.9 1.7-1.1 1.7-2.8 0-1.4-1.3-1.5-2.1-.7-3.5C49.4-1.1 56 1.9 56 7.5c0 3.9-2.4 6.1-7.8 7.1-2.7.5-5.1-.2-12.4-3.6-8.7-4.2-9.1-4.3-14-3.2-7.1 1.7-11.7 1.5-12.5-.4-.9-2.4 2.1-4.9 4.3-3.5 1.1.6 1.3 1.1.7 1.1-.7 0-1.3.7-1.3 1.6 0 .9.6 1.4 1.3 1.1 1.8-.6 1.5-3.8-.5-5.1-2.3-1.4-5.2.3-5.6 3.3C8 7.2 7.1 8 5.9 8c-1.1 0-2.4 1.1-3.1 2.5-.9 2.1-.9 2.9.4 4.2C4.9 16.3 8 15.9 8 14c0-1.5-3-1.2-3 .2 0 .7-.5.5-1.1-.6-.9-1.4-.8-2.2.4-3.3 4.1-4.2 6.1 2.5 3.5 12.1-1.1 4.2-1 4.7 3.2 13.4 3.4 7.3 4.1 9.7 3.6 12.3-1.1 5.5-3.2 7.9-7.1 7.9-5.6 0-8.6-6.6-4.3-9.4 1.4-.8 2.2-.7 3.5.7 1.7 1.7 1.7 1.9 0 2.8-.9.6-1.5 1.5-1.1 2C6.4 53.5 9 51.2 9 49c0-.9-.9-2.5-1.9-3.4-4.1-3.8-9 3-6 8.3.9 1.7 2.8 2.9 5.2 3.5C8.7 58 10 58.9 10 60c0 1.9 1.9 4 3.6 4 1.9 0 4.4-2.9 4.4-5.1 0-1-.5-1.9-1.1-1.9-.6 0-.8.8-.4 1.9.8 2.6-2 4.8-4 3.1-2.1-1.7-1.9-3.7.6-7.2 3.8-5.2 3.6-10.4-.5-18.6C9 29.1 8 23.1 9.9 20.2c1.2-1.9 4.5-1.1 4.9 1.1.3 1.2-.1 1.7-1.1 1.5-.9-.2-1.7.1-1.8.7-.5 1.9 3 1.6 4-.3 1.3-2.4-1.2-6.4-3.7-6-1.3.2-1.8-.6-2-3.5l-.3-3.8 3.8.3c2.9.2 3.7.7 3.5 2-.4 2.5 3.6 5 6 3.7 1.9-1 2.2-4.3.3-3.7-.5.2-.9.9-.7 1.5.2.7-.6 1.3-1.8 1.3-1.4 0-2-.6-2-2.4 0-4.9 7.5-4.9 17.2 0 8.2 4.1 13.4 4.3 18.6.5 3.5-2.5 5.5-2.7 7.2-.6 1.7 2-.5 4.8-3.1 4-1.1-.4-1.9-.2-1.9.4 0 .6 1.1 1.1 2.5 1.1 3.2 0 5.5-4.1 3.5-6.5-.7-.8-2-1.5-3-1.5-1.2 0-2-1.1-2.4-3.5-1-5-5.7-7.7-10.4-5.8z" fill="#dbdbdb"/></svg>